<?xml version="1.0" encoding="UTF-8" standalone="no"?>
<!-- Generator: Adobe Illustrator 11.0, SVG Export Plug-In  -->

<svg
   xmlns:dc="http://purl.org/dc/elements/1.1/"
   xmlns:cc="http://creativecommons.org/ns#"
   xmlns:rdf="http://www.w3.org/1999/02/22-rdf-syntax-ns#"
   xmlns:svg="http://www.w3.org/2000/svg"
   xmlns="http://www.w3.org/2000/svg"
   xmlns:sodipodi="http://sodipodi.sourceforge.net/DTD/sodipodi-0.dtd"
   xmlns:inkscape="http://www.inkscape.org/namespaces/inkscape"
   width="2102.1611"
   height="841.55042"
   viewBox="-0.7304688 -0.4624023 2102.1611 841.55042"
   xml:space="preserve"
   version="1.1"
   id="svg126"
   sodipodi:docname="piano_experiment_3.svg"
   inkscape:version="0.92.3 (2405546, 2018-03-11)"
   inkscape:export-filename="/home/melanie/Work/pictures/physics/piano_experiment_2.png"
   inkscape:export-xdpi="300"
   inkscape:export-ydpi="300"><metadata
   id="metadata130"><rdf:RDF><cc:Work
       rdf:about=""><dc:format>image/svg+xml</dc:format><dc:type
         rdf:resource="http://purl.org/dc/dcmitype/StillImage" /><dc:title></dc:title></cc:Work></rdf:RDF></metadata><sodipodi:namedview
   pagecolor="#ffffff"
   bordercolor="#666666"
   borderopacity="1"
   objecttolerance="10"
   gridtolerance="10"
   guidetolerance="10"
   inkscape:pageopacity="0"
   inkscape:pageshadow="2"
   inkscape:window-width="1213"
   inkscape:window-height="665"
   id="namedview128"
   showgrid="false"
   inkscape:zoom="0.35355339"
   inkscape:cx="1112.3544"
   inkscape:cy="426.79299"
   inkscape:window-x="67"
   inkscape:window-y="27"
   inkscape:window-maximized="1"
   inkscape:current-layer="svg126"
   fit-margin-top="0"
   fit-margin-left="0"
   fit-margin-right="0"
   fit-margin-bottom="0"
   showguides="false" />
	<defs
   id="defs2"><marker
   inkscape:stockid="Arrow1Lend"
   orient="auto"
   refY="0.0"
   refX="0.0"
   id="Arrow1Lend"
   style="overflow:visible;"
   inkscape:isstock="true"><path
     id="path3692"
     d="M 0.0,0.0 L 5.0,-5.0 L -12.5,0.0 L 5.0,5.0 L 0.0,0.0 z "
     style="fill-rule:evenodd;stroke:#000000;stroke-width:1pt;stroke-opacity:1;fill:#000000;fill-opacity:1"
     transform="scale(0.8) rotate(180) translate(12.5,0)" /></marker><marker
   inkscape:stockid="Arrow1Mend"
   orient="auto"
   refY="0.0"
   refX="0.0"
   id="Arrow1Mend"
   style="overflow:visible;"
   inkscape:isstock="true"><path
     id="path3698"
     d="M 0.0,0.0 L 5.0,-5.0 L -12.5,0.0 L 5.0,5.0 L 0.0,0.0 z "
     style="fill-rule:evenodd;stroke:#000000;stroke-width:1pt;stroke-opacity:1;fill:#000000;fill-opacity:1"
     transform="scale(0.4) rotate(180) translate(10,0)" /></marker>
	
		
		
			
		
			
		
			
		
			
		
			
		
			
		
			
		 
		 
		 
		 
		 
		
		
			
		
			
		
			
		
			
		
			
		
			
		
			
		 
		 
		 
		 
		 
		
		
			
		
			
		
			
		
			
		
			
		
			
		
			
		 
		 
		 
		 
		 
		
		
		
		
		
		
		
		
		
		
		
		
		
		
		
		
		
		
		
		
		
	</defs>
	<polyline
   style="fill:#ffffff;stroke:#000000;stroke-width:4;stroke-miterlimit:1"
   id="polyline4"
   points="701.3896484,463.871582 2,463.871582     2,2 701.3896484,2 "
   stroke-miterlimit="1"
   transform="translate(-0.7304688,170.66871)" /><line
   style="fill:#ffffff;stroke:#000000;stroke-width:4;stroke-miterlimit:1"
   id="line6"
   y2="634.54028"
   x2="700.65918"
   y1="172.6687"
   x1="700.65918"
   stroke-miterlimit="1" /><line
   style="fill:#ffffff;stroke:#000000;stroke-width:4;stroke-miterlimit:1"
   id="line8"
   y2="634.54028"
   x2="600.77734"
   y1="172.6687"
   x1="600.77734"
   stroke-miterlimit="1" /><line
   style="fill:#ffffff;stroke:#000000;stroke-width:4;stroke-miterlimit:1"
   id="line10"
   y2="634.54028"
   x2="500.90039"
   y1="172.6687"
   x1="500.90039"
   stroke-miterlimit="1" /><line
   style="fill:#ffffff;stroke:#000000;stroke-width:4;stroke-miterlimit:1"
   id="line12"
   y2="634.54028"
   x2="400.79688"
   y1="172.6687"
   x1="400.79688"
   stroke-miterlimit="1" /><line
   style="fill:#ffffff;stroke:#000000;stroke-width:4;stroke-miterlimit:1"
   id="line14"
   y2="634.54028"
   x2="300.91406"
   y1="172.6687"
   x1="300.91406"
   stroke-miterlimit="1" /><line
   style="fill:#ffffff;stroke:#000000;stroke-width:4;stroke-miterlimit:1"
   id="line16"
   y2="634.54028"
   x2="201.03467"
   y1="172.6687"
   x1="201.03467"
   stroke-miterlimit="1" /><line
   style="fill:#ffffff;stroke:#000000;stroke-width:4;stroke-miterlimit:1"
   id="line18"
   y2="634.54028"
   x2="101.15185"
   y1="172.6687"
   x1="101.15185"
   stroke-miterlimit="1" /><rect
   style="stroke:#000000;stroke-miterlimit:1"
   id="rect20"
   height="281.96338"
   width="62.038574"
   stroke-miterlimit="1"
   y="172.6687"
   x="71.989746" /><rect
   style="stroke:#000000;stroke-miterlimit:1"
   id="rect22"
   height="281.96338"
   width="62.038574"
   stroke-miterlimit="1"
   y="172.6687"
   x="170.49414" /><rect
   style="stroke:#000000;stroke-miterlimit:1"
   id="rect24"
   height="281.96338"
   width="62.038574"
   stroke-miterlimit="1"
   y="172.6687"
   x="369.77734" /><rect
   style="stroke:#000000;stroke-miterlimit:1"
   id="rect26"
   height="281.96338"
   width="62.038574"
   stroke-miterlimit="1"
   y="172.6687"
   x="469.88135" /><rect
   style="stroke:#000000;stroke-miterlimit:1"
   id="rect28"
   height="281.96338"
   width="62.038086"
   stroke-miterlimit="1"
   y="172.6687"
   x="569.75781" /><polyline
   style="fill:#ffffff;stroke:#000000;stroke-width:4;stroke-miterlimit:1"
   id="polyline30"
   points="1400.7753906,463.871582     701.3896484,463.871582 701.3896484,2 1400.7753906,2 "
   stroke-miterlimit="1"
   transform="translate(-0.7304688,170.66871)" /><line
   style="fill:#ffffff;stroke:#000000;stroke-width:4;stroke-miterlimit:1"
   id="line32"
   y2="634.54028"
   x2="1400.0449"
   y1="172.6687"
   x1="1400.0449"
   stroke-miterlimit="1" /><line
   style="fill:#ffffff;stroke:#000000;stroke-width:4;stroke-miterlimit:1"
   id="line34"
   y2="634.54028"
   x2="1300.1621"
   y1="172.6687"
   x1="1300.1621"
   stroke-miterlimit="1" /><line
   style="fill:#ffffff;stroke:#000000;stroke-width:4;stroke-miterlimit:1"
   id="line36"
   y2="634.54028"
   x2="1200.2852"
   y1="172.6687"
   x1="1200.2852"
   stroke-miterlimit="1" /><line
   style="fill:#ffffff;stroke:#000000;stroke-width:4;stroke-miterlimit:1"
   id="line38"
   y2="634.54028"
   x2="1100.1816"
   y1="172.6687"
   x1="1100.1816"
   stroke-miterlimit="1" /><line
   style="fill:#ffffff;stroke:#000000;stroke-width:4;stroke-miterlimit:1"
   id="line40"
   y2="634.54028"
   x2="1000.2988"
   y1="172.6687"
   x1="1000.2988"
   stroke-miterlimit="1" /><line
   style="fill:#ffffff;stroke:#000000;stroke-width:4;stroke-miterlimit:1"
   id="line42"
   y2="634.54028"
   x2="900.41992"
   y1="172.6687"
   x1="900.41992"
   stroke-miterlimit="1" /><line
   style="fill:#ffffff;stroke:#000000;stroke-width:4;stroke-miterlimit:1"
   id="line44"
   y2="634.54028"
   x2="800.53711"
   y1="172.6687"
   x1="800.53711"
   stroke-miterlimit="1" /><rect
   style="stroke:#000000;stroke-miterlimit:1"
   id="rect46"
   height="281.96338"
   width="62.03418"
   stroke-miterlimit="1"
   y="172.6687"
   x="771.30469" /><rect
   style="stroke:#000000;stroke-miterlimit:1"
   id="rect48"
   height="281.96338"
   width="62.038086"
   stroke-miterlimit="1"
   y="172.6687"
   x="869.80469" /><rect
   style="stroke:#000000;stroke-miterlimit:1"
   id="rect50"
   height="281.96338"
   width="62.038086"
   stroke-miterlimit="1"
   y="172.6687"
   x="1069.0879" /><rect
   style="stroke:#000000;stroke-miterlimit:1"
   id="rect52"
   height="281.96338"
   width="62.038086"
   stroke-miterlimit="1"
   y="172.6687"
   x="1169.1924" /><rect
   style="stroke:#000000;stroke-miterlimit:1"
   id="rect54"
   height="281.96338"
   width="62.038086"
   stroke-miterlimit="1"
   y="172.6687"
   x="1269.0684" /><polyline
   style="fill:#ffffff;stroke:#000000;stroke-width:4;stroke-miterlimit:1"
   id="polyline56"
   points="2100.1611328,463.871582     1400.7753906,463.871582 1400.7753906,2 2100.1611328,2 "
   stroke-miterlimit="1"
   transform="translate(-0.7304688,170.66871)" /><line
   style="fill:#ffffff;stroke:#000000;stroke-width:4;stroke-miterlimit:1"
   id="line58"
   y2="634.54028"
   x2="2099.4307"
   y1="172.6687"
   x1="2099.4307"
   stroke-miterlimit="1" /><line
   style="fill:#ffffff;stroke:#000000;stroke-width:4;stroke-miterlimit:1"
   id="line60"
   y2="634.54028"
   x2="1999.5479"
   y1="172.6687"
   x1="1999.5479"
   stroke-miterlimit="1" /><line
   style="fill:#ffffff;stroke:#000000;stroke-width:4;stroke-miterlimit:1"
   id="line62"
   y2="634.54028"
   x2="1899.6709"
   y1="172.6687"
   x1="1899.6709"
   stroke-miterlimit="1" /><line
   style="fill:#ffffff;stroke:#000000;stroke-width:4;stroke-miterlimit:1"
   id="line64"
   y2="634.54028"
   x2="1799.5674"
   y1="172.6687"
   x1="1799.5674"
   stroke-miterlimit="1" /><line
   style="fill:#ffffff;stroke:#000000;stroke-width:4;stroke-miterlimit:1"
   id="line66"
   y2="634.54028"
   x2="1699.6846"
   y1="172.6687"
   x1="1699.6846"
   stroke-miterlimit="1" /><line
   style="fill:#ffffff;stroke:#000000;stroke-width:4;stroke-miterlimit:1"
   id="line68"
   y2="634.54028"
   x2="1599.8057"
   y1="172.6687"
   x1="1599.8057"
   stroke-miterlimit="1" /><line
   style="fill:#ffffff;stroke:#000000;stroke-width:4;stroke-miterlimit:1"
   id="line70"
   y2="634.54028"
   x2="1499.9229"
   y1="172.6687"
   x1="1499.9229"
   stroke-miterlimit="1" /><rect
   style="stroke:#000000;stroke-miterlimit:1"
   id="rect72"
   height="281.96338"
   width="62.03418"
   stroke-miterlimit="1"
   y="172.6687"
   x="1470.6904" /><rect
   style="stroke:#000000;stroke-miterlimit:1"
   id="rect74"
   height="281.96338"
   width="62.038086"
   stroke-miterlimit="1"
   y="172.6687"
   x="1569.1904" /><rect
   style="stroke:#000000;stroke-miterlimit:1"
   id="rect76"
   height="281.96338"
   width="62.038086"
   stroke-miterlimit="1"
   y="172.6687"
   x="1768.4736" /><rect
   style="stroke:#000000;stroke-miterlimit:1"
   id="rect78"
   height="281.96338"
   width="62.038086"
   stroke-miterlimit="1"
   y="172.6687"
   x="1868.5781" /><rect
   style="stroke:#000000;stroke-miterlimit:1"
   id="rect80"
   height="281.96338"
   width="62.038086"
   stroke-miterlimit="1"
   y="172.6687"
   x="1968.4541" />
<path
   style="opacity:0.92000002;fill:#0064f8;fill-opacity:1;stroke:#000000;stroke-width:2.00314951;stroke-miterlimit:4;stroke-dasharray:none;stroke-dashoffset:0;stroke-opacity:1"
   id="path1016"
   sodipodi:type="arc"
   sodipodi:cx="1549.7766"
   sodipodi:cy="588.33423"
   sodipodi:rx="44.029045"
   sodipodi:ry="42.206097"
   sodipodi:start="6.138672"
   sodipodi:end="6.1236099"
   sodipodi:open="true"
   d="m 1593.3467,582.25609 a 44.029045,42.206097 0 0 1 -37.0654,47.8211 44.029045,42.206097 0 0 1 -50.0258,-35.35046 44.029045,42.206097 0 0 1 36.6887,-48.08732 44.029045,42.206097 0 0 1 50.3021,34.98831" /><text
   xml:space="preserve"
   style="font-style:normal;font-weight:normal;font-size:21.33333397px;line-height:125%;font-family:sans-serif;text-align:center;letter-spacing:0px;word-spacing:0px;text-anchor:middle;fill:#000000;fill-opacity:1;stroke:none;stroke-width:1px;stroke-linecap:butt;stroke-linejoin:miter;stroke-opacity:1"
   x="1551.3456"
   y="711.34845"
   id="text1020"><tspan
     sodipodi:role="line"
     id="tspan1018"
     x="1561.5331"
     y="711.34845"
     style="font-size:64px">Taste </tspan><tspan
     sodipodi:role="line"
     x="1551.3456"
     y="738.01514"
     style="font-size:64px"
     id="tspan1022" /><tspan
     sodipodi:role="line"
     x="1561.5331"
     y="775.76514"
     style="font-size:64px"
     id="tspan1028">lautlos </tspan><tspan
     sodipodi:role="line"
     x="1551.3456"
     y="802.43176"
     style="font-size:64px"
     id="tspan1024" /><tspan
     sodipodi:role="line"
     x="1551.3456"
     y="840.18176"
     style="font-size:64px"
     id="tspan1026">drücken</tspan></text>

<path
   style="fill:none;stroke:#0000da;stroke-width:3.18099999;stroke-miterlimit:4;stroke-dasharray:none;stroke-dashoffset:0"
   d="m 1723.8838,1.7556677 c -0.8209,-0.41214 -1.6505,-0.62757 -2.4895,-0.62757 -9.6136,-4.3e-4 -18.042,28.5020403 -26.5268,57.0040503 -8.4283,28.502053 -16.8756,57.004342 -26.5268,57.004342 -9.6512,0 -18.042,-28.502289 -26.5267,-57.004342 -8.4284,-28.50201 -16.8756,-57.0040503 -26.5268,-57.0040503 -9.6136,-4.3e-4 -18.0419,28.5020403 -26.5268,57.0040503 -8.4283,28.502053 -16.8754,57.004342 -26.5266,57.004342 -9.6513,0 -18.042,-28.502289 -26.5268,-57.004342 -8.4472,-28.50201 -16.8756,-57.0040503 -26.5268,-57.0040503 -9.6136,-4.3e-4 -18.042,28.5020403 -26.5268,57.0040503 -8.4284,28.502053 -16.8755,57.004342 -26.5267,57.004342 -9.6136,3.7e-4 -18.0419,-28.502289 -26.5268,-57.004342 -8.4283,-28.50201 -16.8754,-57.0040503 -26.5268,-57.0040503 -9.6135,-4.3e-4 -18.0419,28.5020403 -26.5266,57.0040503 -8.4284,28.502053 -16.8756,57.004342 -26.5268,57.004342 -9.6137,3.7e-4 -18.042,-28.502289 -26.5268,-57.004342"
   id="path1777"
   inkscape:connector-curvature="0" /><path
   d="m 893.3467,582.25609 a 44.029045,42.206097 0 0 1 -37.06541,47.8211 44.029045,42.206097 0 0 1 -50.02578,-35.35046 44.029045,42.206097 0 0 1 36.68866,-48.08732 44.029045,42.206097 0 0 1 50.30209,34.98831"
   sodipodi:open="true"
   sodipodi:end="6.1236099"
   sodipodi:start="6.138672"
   sodipodi:ry="42.206097"
   sodipodi:rx="44.029045"
   sodipodi:cy="588.33423"
   sodipodi:cx="849.77661"
   sodipodi:type="arc"
   id="path1779"
   style="opacity:0.92000002;fill:#c80000;fill-opacity:1;stroke:#000000;stroke-width:2.00314951;stroke-miterlimit:4;stroke-dasharray:none;stroke-dashoffset:0;stroke-opacity:1" /><text
   id="text1791"
   y="711.34845"
   x="851.34558"
   style="font-style:normal;font-weight:normal;font-size:21.33333397px;line-height:125%;font-family:sans-serif;text-align:center;letter-spacing:0px;word-spacing:0px;text-anchor:middle;fill:#000000;fill-opacity:1;stroke:none;stroke-width:1px;stroke-linecap:butt;stroke-linejoin:miter;stroke-opacity:1"
   xml:space="preserve"><tspan
     id="tspan1789"
     style="font-size:64px"
     y="711.34845"
     x="851.34558"
     sodipodi:role="line">&quot;Selbe&quot; Taste</tspan><tspan
     style="font-size:64px"
     y="738.01514"
     x="851.34558"
     sodipodi:role="line"
     id="tspan1807" /><tspan
     style="font-size:64px"
     y="775.76514"
     x="861.53308"
     sodipodi:role="line"
     id="tspan1813">kurz &quot;normal&quot; </tspan><tspan
     style="font-size:64px"
     y="802.43176"
     x="851.34558"
     sodipodi:role="line"
     id="tspan1809" /><tspan
     style="font-size:64px"
     y="840.18176"
     x="851.34558"
     sodipodi:role="line"
     id="tspan1811">spielen</tspan></text>

<path
   style="fill:none;stroke:#c80000;stroke-width:4.87900019;stroke-miterlimit:4;stroke-dasharray:none;stroke-dashoffset:0;stroke-opacity:1"
   d="M 1040.8516 33.130036 C 1034.5548 41.056532 1028.3329 49.825564 1022.0982 58.594551 C 1002.1179 86.884338 982.09322 115.17436 959.21417 115.17436 C 936.42422 115.17472 916.44415 86.884338 896.32992 58.594551 C 876.34984 30.304807 856.32521 2.0150327 833.44567 2.0150327 C 810.65597 2.0146059 790.67567 30.304807 770.5619 58.594551 C 750.58159 86.884338 730.55671 115.17436 707.67765 115.17436 C 684.88749 115.17472 664.90742 86.884338 644.7934 58.594551 "
   id="path1822"
   transform="translate(-0.7304688,-0.4624023)" /><path
   style="fill:none;fill-rule:evenodd;stroke:#000000;stroke-width:4;stroke-linecap:butt;stroke-linejoin:miter;stroke-miterlimit:4;stroke-dasharray:none;stroke-opacity:1;marker-end:url(#Arrow1Lend)"
   d="m 1080.1174,45.554824 h 161.2204"
   id="path3687"
   inkscape:connector-curvature="0"
   sodipodi:nodetypes="cc" /><path
   id="path4009"
   d="m 1720.1211,32.667634 c -6.2968,7.926496 -12.5187,16.695528 -18.7534,25.464515 -19.9803,28.289787 -40.0049,56.579811 -62.884,56.579811 -22.7899,3.6e-4 -42.77,-28.290024 -62.8842,-56.579811 -19.9801,-28.289744 -40.0048,-56.5795186 -62.8843,-56.5795186 -22.7897,-4.268e-4 -42.77,28.2897746 -62.8838,56.5795186 -19.9803,28.289787 -40.0052,56.579811 -62.8842,56.579811 -22.7902,3.6e-4 -42.7702,-28.290024 -62.8843,-56.579811"
   style="fill:none;stroke:#c80000;stroke-width:4.87900019;stroke-miterlimit:4;stroke-dasharray:4.87900019,9.75800037;stroke-dashoffset:0;stroke-opacity:1"
   inkscape:connector-curvature="0" /><text
   id="text4027"
   y="150.3434"
   x="1162.8604"
   style="font-style:normal;font-weight:normal;font-size:21.33333397px;line-height:125%;font-family:sans-serif;text-align:center;letter-spacing:0px;word-spacing:0px;text-anchor:middle;fill:#000000;fill-opacity:1;stroke:none;stroke-width:1px;stroke-linecap:butt;stroke-linejoin:miter;stroke-opacity:1"
   xml:space="preserve"><tspan
     id="tspan4025"
     style="font-size:64px"
     y="150.3434"
     x="1162.8604"
     sodipodi:role="line">Resonanz</tspan></text>
</svg>