<?xml version="1.0" encoding="UTF-8" standalone="no"?>
<!-- Created with Inkscape (http://www.inkscape.org/) -->

<svg
   width="180.71529mm"
   height="94.559052mm"
   viewBox="0 0 180.71529 94.559051"
   version="1.1"
   id="svg5"
   inkscape:version="1.2.1 (9c6d41e410, 2022-07-14, custom)"
   sodipodi:docname="regenwurm_regenwurmfarben.svg"
   inkscape:export-filename="regenwurm_viridis.png"
   inkscape:export-xdpi="300"
   inkscape:export-ydpi="300"
   xmlns:inkscape="http://www.inkscape.org/namespaces/inkscape"
   xmlns:sodipodi="http://sodipodi.sourceforge.net/DTD/sodipodi-0.dtd"
   xmlns="http://www.w3.org/2000/svg"
   xmlns:svg="http://www.w3.org/2000/svg">
  <sodipodi:namedview
     id="namedview7"
     pagecolor="#ffffff"
     bordercolor="#000000"
     borderopacity="0.25"
     inkscape:showpageshadow="2"
     inkscape:pageopacity="0.0"
     inkscape:pagecheckerboard="0"
     inkscape:deskcolor="#d1d1d1"
     inkscape:document-units="mm"
     showgrid="false"
     inkscape:zoom="1.6819304"
     inkscape:cx="356.43567"
     inkscape:cy="176.88009"
     inkscape:window-width="1920"
     inkscape:window-height="1131"
     inkscape:window-x="0"
     inkscape:window-y="32"
     inkscape:window-maximized="1"
     inkscape:current-layer="layer1" />
  <defs
     id="defs2" />
  <g
     inkscape:label="Ebene 1"
     inkscape:groupmode="layer"
     id="layer1"
     transform="translate(-14.260741,-72.098365)">
    <path
       style="fill:#651b00;fill-opacity:0.63921571;stroke:#000000;stroke-width:1.1726;stroke-opacity:1"
       d="m 147.72794,90.483403 -0.2886,-17.389882 -10.36073,-0.334875 0.0492,17.740755 z"
       id="path266"
       sodipodi:nodetypes="ccccc" />
    <path
       style="fill:#651b00;fill-opacity:0.63921571;stroke:#000000;stroke-width:1.1726;stroke-opacity:1"
       d="m 147.72794,127.52509 -0.2886,-17.3899 -10.36073,-0.33487 0.0492,17.74076 z"
       id="path10512"
       sodipodi:nodetypes="ccccc" />
    <path
       style="fill:#651b00;fill-opacity:0.63921571;stroke:#000000;stroke-width:1;stroke-opacity:1"
       d="m 148.09028,73.076007 c 0,0 35.53391,6.37535 27.10497,10.95901 -10.0716,5.476936 -27.04992,6.567703 -27.04992,6.567703 z"
       id="path268"
       sodipodi:nodetypes="cscc" />
    <path
       style="fill:#651b00;fill-opacity:0.63921571;stroke:#000000;stroke-width:1.38396;stroke-opacity:1"
       d="m 136.70213,90.483662 -0.20998,-17.66539 -14.10209,0.564772 0.23767,17.430442 z"
       id="path378"
       sodipodi:nodetypes="ccccc" />
    <path
       style="fill:#651b00;fill-opacity:0.63921571;stroke:#000000;stroke-width:1.25499;stroke-opacity:1"
       d="m 122.34819,90.930524 c 0.80949,-8.579765 -0.27464,-11.686907 -0.41196,-17.53036 -3.97567,0.02845 -4.38424,0.749408 -11.86275,0.609288 l -0.34459,17.579178 z"
       id="path380"
       sodipodi:nodetypes="ccccc" />
    <path
       style="fill:#651b00;fill-opacity:0.63921571;stroke:#000000;stroke-width:1.22803;stroke-opacity:1"
       d="m 109.23208,91.615191 0.34142,-17.606765 -11.446273,-0.446321 -0.589728,17.480192 6.339621,0.889746 z"
       id="path382"
       sodipodi:nodetypes="cccccc" />
    <path
       style="fill:#651b00;fill-opacity:0.63921571;stroke:#000000;stroke-width:0.724961;stroke-opacity:1"
       d="m 81.300567,90.627595 -0.13538,-17.800747 -4.13356,0.367498 -0.17908,17.890236 z"
       id="path386"
       sodipodi:nodetypes="ccccc" />
    <path
       style="fill:#651b00;fill-opacity:0.63921571;stroke:#000000;stroke-width:0.757022;stroke-opacity:1"
       d="m 76.889987,91.044758 -0.14789,-17.769228 -4.28144,0.0865 -0.29739,17.784567 z"
       id="path388"
       sodipodi:nodetypes="ccccc" />
    <path
       style="fill:#651b00;fill-opacity:0.63921571;stroke:#000000;stroke-width:0.796391;stroke-opacity:1"
       d="m 72.065407,91.149703 -0.16402,-17.730526 -5.14947,0.348754 -0.1987,17.708363 z"
       id="path390"
       sodipodi:nodetypes="ccccc" />
    <path
       style="fill:#651b00;fill-opacity:0.63921571;stroke:#000000;stroke-width:1;stroke-opacity:1"
       d="m 66.536347,91.448487 -0.26156,-17.53036 -7.6695,-0.03876 -0.5017,17.668589 z"
       id="path392"
       sodipodi:nodetypes="ccccc" />
    <path
       style="fill:#651b00;fill-opacity:0.63921571;stroke:#000000;stroke-width:1;stroke-opacity:1"
       d="m 58.069687,91.448487 -0.26156,-17.53036 -7.71055,-0.0487 -0.14733,17.498873 z"
       id="path394"
       sodipodi:nodetypes="ccccc" />
    <path
       style="fill:#651b00;fill-opacity:0.63921571;stroke:#000000;stroke-width:1;stroke-opacity:1"
       d="m 49.603027,91.448487 -0.26156,-17.53036 -7.71232,-0.474527 -0.36148,17.860852 z"
       id="path396"
       sodipodi:nodetypes="ccccc" />
    <path
       style="fill:#651b00;fill-opacity:0.637431;stroke:#000000;stroke-width:1;stroke-opacity:1"
       d="m 41.05485,73.494907 c 0,0 -27.22996,2.21883 -26.2696,11.765285 0.90479,8.99412 26.46162,5.93281 26.46162,5.93281 z"
       id="path398"
       sodipodi:nodetypes="cscc" />
    <path
       style="fill:#651b00;fill-opacity:0.63921571;stroke:#000000;stroke-width:1;stroke-opacity:1"
       d="m 97.43269,90.973794 0.431179,-17.542039 -8.265449,0.09702 -0.16007,18.476558 z"
       id="path384"
       sodipodi:nodetypes="ccccc" />
    <path
       style="fill:#651b00;fill-opacity:0.63921571;stroke:#000000;stroke-width:0.963687;stroke-opacity:1"
       d="m 88.691122,91.994439 0.355542,-18.519985 -7.442233,-0.51367 0.03031,17.698726 z"
       id="path1680"
       sodipodi:nodetypes="ccccc" />
    <path
       style="fill:#651b00;fill-opacity:0.63921571;stroke:#000000;stroke-width:1;stroke-opacity:1"
       d="m 148.09028,110.11768 c 0,0 35.53391,6.37535 27.10497,10.95901 -10.0716,5.47695 -27.04992,6.56771 -27.04992,6.56771 z"
       id="path10514"
       sodipodi:nodetypes="cscc" />
    <path
       style="fill:#651b00;fill-opacity:0.63921571;stroke:#000000;stroke-width:0.899146;stroke-opacity:1"
       d="m 136.92351,127.72391 -0.0865,-18.09528 -5.81105,0.57852 0.0979,17.85461 z"
       id="path10516"
       sodipodi:nodetypes="ccccc" />
    <path
       style="fill:#651b00;fill-opacity:0.63921571;stroke:#000000;stroke-width:0.815355;stroke-opacity:1"
       d="m 131.00868,128.18165 c 0.33357,-8.78856 -0.11317,-11.97131 -0.16976,-17.95697 -1.63825,0.0291 -1.80661,0.76765 -4.88828,0.62412 l -0.142,18.00697 z"
       id="path10518"
       sodipodi:nodetypes="ccccc" />
    <path
       style="fill:#651b00;fill-opacity:0.63921571;stroke:#000000;stroke-width:0.79784;stroke-opacity:1"
       d="m 125.60392,128.88298 0.14069,-18.03523 -4.71667,-0.45719 -0.24301,17.90558 2.61237,0.9114 z"
       id="path10520"
       sodipodi:nodetypes="cccccc" />
    <path
       style="fill:#651b00;fill-opacity:0.63921571;stroke:#000000;stroke-width:1.05209;stroke-opacity:1"
       d="m 105.28466,127.50714 -0.29069,-17.45972 -8.875692,0.36045 -0.384524,17.5475 z"
       id="path10524"
       sodipodi:nodetypes="ccccc" />
    <path
       style="fill:#651b00;fill-opacity:0.63921571;stroke:#000000;stroke-width:1.26343;stroke-opacity:1"
       d="M 95.730299,127.83327 95.30626,110.5715 83.030278,110.6556 82.177585,127.93226 Z"
       id="path10526"
       sodipodi:nodetypes="ccccc" />
    <path
       style="fill:#651b00;fill-opacity:0.63921571;stroke:#000000;stroke-width:1.15575;stroke-opacity:1"
       d="m 82.279694,128.01924 -0.352188,-17.39084 -11.057061,0.34207 -0.426654,17.36911 z"
       id="path10528"
       sodipodi:nodetypes="ccccc" />
    <path
       style="fill:#651b00;fill-opacity:0.63921571;stroke:#000000;stroke-width:1;stroke-opacity:1"
       d="m 70.240546,128.49016 -0.26156,-17.53036 -7.6695,-0.0388 -0.5017,17.66858 z"
       id="path10532"
       sodipodi:nodetypes="ccccc" />
    <path
       style="fill:#651b00;fill-opacity:0.63921571;stroke:#000000;stroke-width:1;stroke-opacity:1"
       d="m 61.773886,128.49016 -0.26156,-17.53036 -7.71055,-0.0487 -0.14733,17.49887 z"
       id="path10534"
       sodipodi:nodetypes="ccccc" />
    <path
       style="fill:#651b00;fill-opacity:0.63921571;stroke:#000000;stroke-width:1.04518;stroke-opacity:1"
       d="m 53.284628,128.46691 -0.286467,-17.48514 -8.446714,-0.4733 -0.395901,17.81477 z"
       id="path10536"
       sodipodi:nodetypes="ccccc" />
    <path
       style="fill:#651b00;fill-opacity:0.637431;stroke:#000000;stroke-width:1;stroke-opacity:1"
       d="m 44.229852,110.53658 c 0,0 -27.22996,2.21883 -26.2696,11.76529 0.90479,8.99413 26.46162,5.93282 26.46162,5.93282 z"
       id="path10540"
       sodipodi:nodetypes="cscc" />
    <path
       style="fill:#651b00;fill-opacity:0.63921571;stroke:#000000;stroke-width:0.875134;stroke-opacity:1"
       d="m 120.339,128.07318 0.32791,-17.66531 -6.28594,0.0977 -0.12173,18.6064 z"
       id="path10542"
       sodipodi:nodetypes="ccccc" />
    <path
       style="fill:#651b00;fill-opacity:0.63921571;stroke:#000000;stroke-width:1.00545;stroke-opacity:1"
       d="m 113.39605,129.01403 0.38793,-18.47689 -8.12008,-0.51247 0.0331,17.65754 z"
       id="path10544"
       sodipodi:nodetypes="ccccc" />
    <path
       style="fill:#651b00;fill-opacity:0.637431;stroke:#000000;stroke-width:1;stroke-opacity:1"
       d="m 166.08197,147.15937 c 0,0 35.53391,6.37535 27.10497,10.95901 -10.0716,5.47695 -27.04992,6.56771 -27.04992,6.56771 z"
       id="path10548"
       sodipodi:nodetypes="cscc" />
    <path
       style="fill:#651b00;fill-opacity:0.63921571;stroke:#000000;stroke-width:1.33661;stroke-opacity:1"
       d="m 155.13502,164.58143 -0.19547,-17.70252 -13.12613,0.56596 0.22122,17.46708 z"
       id="path10550"
       sodipodi:nodetypes="ccccc" />
    <path
       style="fill:#651b00;fill-opacity:0.63921571;stroke:#000000;stroke-width:1.19233;stroke-opacity:1"
       d="m 141.94052,165.04691 c 0.72794,-8.61203 -0.24697,-11.73086 -0.37046,-17.59629 -3.57515,0.0286 -3.94256,0.75223 -10.66765,0.61158 l -0.30988,17.64529 z"
       id="path10552"
       sodipodi:nodetypes="ccccc" />
    <path
       style="fill:#651b00;fill-opacity:0.63921571;stroke:#000000;stroke-width:1.10352;stroke-opacity:1"
       d="m 130.16171,165.76721 0.27367,-17.73691 -9.17511,-0.44962 -0.47272,17.6094 5.08172,0.89632 z"
       id="path10554"
       sodipodi:nodetypes="cccccc" />
    <path
       style="fill:#651b00;fill-opacity:0.63921571;stroke:#000000;stroke-width:0.704672;stroke-opacity:1"
       d="m 103.26927,164.72437 -0.12771,-17.82828 -3.899391,0.36807 -0.168935,17.9179 z"
       id="path10558"
       sodipodi:nodetypes="ccccc" />
    <path
       style="fill:#651b00;fill-opacity:0.63921571;stroke:#000000;stroke-width:0.766365;stroke-opacity:1"
       d="m 98.930139,165.12688 -0.151584,-17.7668 -4.38837,0.0865 -0.304817,17.78214 z"
       id="path10560"
       sodipodi:nodetypes="ccccc" />
    <path
       style="fill:#651b00;fill-opacity:0.63921571;stroke:#000000;stroke-width:0.80622;stroke-opacity:1"
       d="m 93.985064,165.23181 -0.168117,-17.7281 -5.278079,0.34871 -0.203662,17.70594 z"
       id="path10562"
       sodipodi:nodetypes="ccccc" />
    <path
       style="fill:#651b00;fill-opacity:0.63921571;stroke:#000000;stroke-width:1;stroke-opacity:1"
       d="m 88.76137,165.53182 -0.26156,-17.53036 -7.6695,-0.0388 -0.5017,17.66859 z"
       id="path10566"
       sodipodi:nodetypes="ccccc" />
    <path
       style="fill:#651b00;fill-opacity:0.63921571;stroke:#000000;stroke-width:1.08971;stroke-opacity:1"
       d="m 80.248902,165.48652 -0.312205,-17.44 -9.203521,-0.0484 -0.175857,17.40868 z"
       id="path10568"
       sodipodi:nodetypes="ccccc" />
    <path
       style="fill:#651b00;fill-opacity:0.63921571;stroke:#000000;stroke-width:1.10573;stroke-opacity:1"
       d="m 70.587191,165.21266 -0.331532,-16.90963 -9.775512,-0.45771 -0.458182,17.22841 z"
       id="path10570"
       sodipodi:nodetypes="ccccc" />
    <path
       style="fill:#651b00;fill-opacity:0.63921571;stroke:#000000;stroke-width:1;stroke-opacity:1"
       d="m 60.634017,147.57827 c 0,0 -27.22996,2.21883 -26.2696,11.76529 0.90479,8.99413 26.46162,5.93282 26.46162,5.93282 z"
       id="path10574"
       sodipodi:nodetypes="cscc" />
    <path
       style="fill:#651b00;fill-opacity:0.63921571;stroke:#000000;stroke-width:1.00545;stroke-opacity:1"
       d="m 120.16528,165.05461 0.43602,-17.53681 -8.35821,0.097 -0.16187,18.47105 z"
       id="path10576"
       sodipodi:nodetypes="ccccc" />
    <path
       style="fill:#651b00;fill-opacity:0.63921571;stroke:#000000;stroke-width:1.00545;stroke-opacity:1"
       d="m 111.27937,166.0557 0.38793,-18.47689 -8.12008,-0.51247 0.0331,17.65754 z"
       id="path10578"
       sodipodi:nodetypes="ccccc" />
    <path
       style="fill:#651b00;fill-opacity:0.63921571;stroke:#000000;stroke-width:1.1726;stroke-opacity:1"
       d="m 165.71963,164.56676 -0.2886,-17.3899 -10.36073,-0.33487 0.0492,17.74076 z"
       id="path10584"
       sodipodi:nodetypes="ccccc" />
  </g>
</svg>
